<svg width="188" height="15" viewBox="0 0 188 15" fill="none" xmlns="http://www.w3.org/2000/svg">
<path d="M0.704689 14V0.582031H1.92539V14H0.704689ZM19.0352 14V5.14258C19.0352 4.40039 18.9342 3.79167 18.7324 3.31641C18.5371 2.83464 18.2539 2.45378 17.8828 2.17383C17.5182 1.89388 17.0723 1.69857 16.5449 1.58789C16.0176 1.47721 15.4251 1.42188 14.7676 1.42188C14.0059 1.42188 13.2572 1.51628 12.5215 1.70508C11.7923 1.88737 11.1022 2.12174 10.4512 2.4082C9.80013 2.68815 9.20117 3.00065 8.6543 3.3457C8.10742 3.69076 7.64518 4.02279 7.26758 4.3418V14H6.04688V0.582031H7.26758V2.93555C7.72331 2.64909 8.22461 2.34961 8.77149 2.03711C9.32487 1.7181 9.91732 1.42839 10.5488 1.16797C11.1869 0.901042 11.8672 0.682943 12.5898 0.513672C13.3125 0.344401 14.0742 0.259766 14.875 0.259766C15.7799 0.259766 16.5677 0.370443 17.2383 0.591797C17.9154 0.806641 18.4753 1.11589 18.918 1.51953C19.3672 1.91667 19.7025 2.40169 19.9238 2.97461C20.1452 3.54102 20.2559 4.17578 20.2559 4.87891V14H19.0352ZM38.9672 7.28125C38.9672 8.14062 38.876 8.9056 38.6938 9.57617C38.518 10.2402 38.2673 10.8197 37.9418 11.3145C37.6163 11.8092 37.2191 12.2292 36.7504 12.5742C36.2882 12.9193 35.7706 13.196 35.1977 13.4043C34.6313 13.6126 34.0128 13.7656 33.3422 13.8633C32.6781 13.9544 31.9783 14 31.2426 14H24.3188V0.582031H31.223C32.3233 0.582031 33.3454 0.689453 34.2895 0.904297C35.2335 1.11914 36.0505 1.48698 36.7406 2.00781C37.4372 2.52214 37.9809 3.20898 38.3715 4.06836C38.7686 4.92773 38.9672 5.9987 38.9672 7.28125ZM37.7074 7.28125C37.7074 6.55208 37.6358 5.90755 37.4926 5.34766C37.3494 4.78776 37.1443 4.30273 36.8773 3.89258C36.6104 3.47591 36.2849 3.1276 35.9008 2.84766C35.5167 2.56771 35.0837 2.3431 34.602 2.17383C34.1202 1.99805 33.5961 1.87435 33.0297 1.80273C32.4633 1.73112 31.8611 1.69531 31.223 1.69531H25.5395V12.877H31.223C32.1801 12.877 33.0557 12.7923 33.85 12.623C34.6443 12.4473 35.3246 12.1478 35.891 11.7246C36.4639 11.2949 36.9099 10.722 37.2289 10.0059C37.5479 9.2832 37.7074 8.375 37.7074 7.28125ZM42.1219 14V0.582031H43.3426V14H42.1219ZM55.3645 0.337891C55.9829 0.337891 56.5591 0.370443 57.093 0.435547C57.6268 0.494141 58.1379 0.582031 58.6262 0.699219C59.1145 0.809896 59.5897 0.946615 60.052 1.10938C60.5142 1.26562 60.9797 1.44141 61.4484 1.63672V3.12109C61.0773 2.88672 60.6802 2.66536 60.257 2.45703C59.8404 2.2487 59.3879 2.06641 58.8996 1.91016C58.4178 1.75391 57.897 1.63021 57.3371 1.53906C56.7837 1.44792 56.188 1.40234 55.55 1.40234C54.2479 1.40234 53.1119 1.53906 52.1418 1.8125C51.1717 2.08594 50.3645 2.47656 49.7199 2.98438C49.0754 3.49219 48.5904 4.11068 48.2648 4.83984C47.9458 5.56901 47.7863 6.38932 47.7863 7.30078C47.7863 8.15365 47.9426 8.94141 48.2551 9.66406C48.5741 10.3802 49.0526 10.9987 49.6906 11.5195C50.3352 12.0404 51.1392 12.4473 52.1027 12.7402C53.0663 13.0332 54.1958 13.1797 55.4914 13.1797C55.9992 13.1797 56.5005 13.1602 56.9953 13.1211C57.4966 13.082 57.9686 13.0332 58.4113 12.9746C58.854 12.9095 59.2577 12.8411 59.6223 12.7695C59.9869 12.6914 60.2961 12.6133 60.55 12.5352V8.46289H55.091V7.32031H61.7707V13.2188C61.2889 13.388 60.8007 13.5378 60.3059 13.668C59.8176 13.7982 59.3098 13.9089 58.7824 14C58.2616 14.0846 57.718 14.1497 57.1516 14.1953C56.5917 14.2409 56.0025 14.2637 55.384 14.2637C54.121 14.2637 52.9491 14.1237 51.8684 13.8438C50.7876 13.5573 49.8501 13.1276 49.0559 12.5547C48.2681 11.9753 47.6496 11.2493 47.2004 10.377C46.7512 9.50456 46.5266 8.47917 46.5266 7.30078C46.5266 6.51302 46.6307 5.79688 46.8391 5.15234C47.0474 4.5013 47.3404 3.91862 47.718 3.4043C48.1021 2.88346 48.5611 2.43099 49.0949 2.04688C49.6353 1.66276 50.231 1.34701 50.882 1.09961C51.5396 0.845703 52.246 0.656901 53.0012 0.533203C53.7564 0.402995 54.5441 0.337891 55.3645 0.337891ZM81.3707 7.30078C81.3707 8.50521 81.1526 9.54688 80.7164 10.4258C80.2802 11.2982 79.6813 12.0208 78.9195 12.5938C78.1578 13.1602 77.2594 13.5801 76.2242 13.8535C75.1891 14.127 74.0725 14.2637 72.8746 14.2637C71.6702 14.2637 70.5471 14.127 69.5055 13.8535C68.4638 13.5801 67.5589 13.1602 66.7906 12.5938C66.0224 12.0208 65.4202 11.2982 64.984 10.4258C64.5478 9.54688 64.3297 8.50521 64.3297 7.30078C64.3297 6.5 64.4306 5.77409 64.6324 5.12305C64.8342 4.46549 65.1174 3.87956 65.482 3.36523C65.8466 2.8444 66.2861 2.39518 66.8004 2.01758C67.3212 1.63997 67.8974 1.32747 68.5289 1.08008C69.1669 0.826172 69.8505 0.640625 70.5797 0.523438C71.3089 0.39974 72.0738 0.337891 72.8746 0.337891C74.0725 0.337891 75.1891 0.474609 76.2242 0.748047C77.2594 1.02148 78.1578 1.44466 78.9195 2.01758C79.6813 2.58398 80.2802 3.30664 80.7164 4.18555C81.1526 5.05794 81.3707 6.09635 81.3707 7.30078ZM80.1109 7.30078C80.1109 6.35026 79.9547 5.51042 79.6422 4.78125C79.3362 4.05208 78.8805 3.4401 78.275 2.94531C77.6695 2.44401 76.9143 2.06641 76.0094 1.8125C75.1109 1.55208 74.066 1.42188 72.8746 1.42188C71.6832 1.42188 70.6318 1.55208 69.7203 1.8125C68.8154 2.07292 68.0569 2.45378 67.4449 2.95508C66.8329 3.44987 66.3707 4.0651 66.0582 4.80078C65.7457 5.52995 65.5895 6.36328 65.5895 7.30078C65.5895 8.2513 65.7457 9.09115 66.0582 9.82031C66.3707 10.5495 66.8329 11.1647 67.4449 11.666C68.0569 12.1608 68.8154 12.5384 69.7203 12.7988C70.6318 13.0527 71.6832 13.1797 72.8746 13.1797C74.066 13.1797 75.1109 13.0527 76.0094 12.7988C76.9143 12.5384 77.6695 12.1608 78.275 11.666C78.8805 11.1647 79.3362 10.5495 79.6422 9.82031C79.9547 9.09115 80.1109 8.2513 80.1109 7.30078ZM105.434 12.9355C104.965 13.1309 104.5 13.3099 104.037 13.4727C103.582 13.6354 103.107 13.7754 102.612 13.8926C102.117 14.0098 101.596 14.1009 101.049 14.166C100.502 14.2311 99.9066 14.2637 99.2621 14.2637C98.4678 14.2637 97.7029 14.1986 96.9672 14.0684C96.238 13.9382 95.5577 13.7428 94.9262 13.4824C94.2947 13.222 93.7217 12.8997 93.2074 12.5156C92.6931 12.125 92.2504 11.6725 91.8793 11.1582C91.5147 10.6439 91.2315 10.0645 91.0297 9.41992C90.8344 8.77539 90.7367 8.06901 90.7367 7.30078C90.7367 6.53255 90.8344 5.82617 91.0297 5.18164C91.2315 4.53711 91.5147 3.95768 91.8793 3.44336C92.2504 2.92904 92.6931 2.47982 93.2074 2.0957C93.7217 1.70508 94.2947 1.37956 94.9262 1.11914C95.5577 0.858724 96.238 0.663411 96.9672 0.533203C97.6964 0.402995 98.4613 0.337891 99.2621 0.337891C99.9066 0.337891 100.502 0.370443 101.049 0.435547C101.596 0.500651 102.117 0.591797 102.612 0.708984C103.107 0.826172 103.582 0.966146 104.037 1.12891C104.5 1.28516 104.965 1.46094 105.434 1.65625V3.12109C105.063 2.88672 104.666 2.66536 104.243 2.45703C103.819 2.2487 103.36 2.06641 102.866 1.91016C102.377 1.75391 101.853 1.63021 101.293 1.53906C100.733 1.44792 100.135 1.40234 99.4965 1.40234C98.2074 1.40234 97.0909 1.54232 96.1469 1.82227C95.2029 2.10221 94.4216 2.49935 93.8031 3.01367C93.1911 3.52148 92.7354 4.13997 92.4359 4.86914C92.143 5.5918 91.9965 6.40234 91.9965 7.30078C91.9965 8.19922 92.143 9.00977 92.4359 9.73242C92.7354 10.4551 93.1911 11.0736 93.8031 11.5879C94.4216 12.0957 95.2029 12.4896 96.1469 12.7695C97.0909 13.043 98.2074 13.1797 99.4965 13.1797C100.135 13.1797 100.737 13.1341 101.303 13.043C101.876 12.9518 102.41 12.8281 102.905 12.6719C103.406 12.5156 103.865 12.3366 104.282 12.1348C104.705 11.9264 105.089 11.7083 105.434 11.4805V12.9355ZM122.358 9.09766C122.358 9.97656 122.153 10.7383 121.743 11.3828C121.333 12.0208 120.766 12.5514 120.044 12.9746C119.328 13.3978 118.478 13.7135 117.495 13.9219C116.518 14.1237 115.46 14.2246 114.321 14.2246C113.084 14.2246 111.948 14.1465 110.913 13.9902C109.878 13.8275 108.973 13.6029 108.198 13.3164V11.9004C108.615 12.0762 109.044 12.2389 109.487 12.3887C109.93 12.5384 110.402 12.6719 110.903 12.7891C111.404 12.8997 111.938 12.9876 112.505 13.0527C113.078 13.1113 113.696 13.1406 114.36 13.1406C115.298 13.1406 116.177 13.0527 116.997 12.877C117.817 12.6947 118.53 12.4342 119.136 12.0957C119.748 11.7507 120.229 11.3275 120.581 10.8262C120.939 10.3249 121.118 9.7487 121.118 9.09766V6.55859C120.805 6.98177 120.421 7.38867 119.966 7.7793C119.516 8.16341 119.012 8.50521 118.452 8.80469C117.899 9.09766 117.296 9.33529 116.645 9.51758C115.994 9.69336 115.307 9.78125 114.585 9.78125C113.764 9.78125 113.035 9.70638 112.397 9.55664C111.766 9.40039 111.212 9.1888 110.737 8.92188C110.268 8.65495 109.871 8.33919 109.546 7.97461C109.22 7.60352 108.957 7.20312 108.755 6.77344C108.559 6.33724 108.416 5.88151 108.325 5.40625C108.24 4.93099 108.198 4.44922 108.198 3.96094V0.582031H109.438V3.69727C109.438 4.44596 109.526 5.1263 109.702 5.73828C109.884 6.35026 110.18 6.87435 110.591 7.31055C111.001 7.74674 111.538 8.08529 112.202 8.32617C112.873 8.56055 113.699 8.67773 114.682 8.67773C115.444 8.67773 116.144 8.57682 116.782 8.375C117.42 8.16667 118.003 7.88997 118.53 7.54492C119.057 7.19336 119.536 6.78971 119.966 6.33398C120.395 5.87826 120.779 5.39974 121.118 4.89844V0.582031H122.358V9.09766ZM140.239 12.9355C139.771 13.1309 139.305 13.3099 138.843 13.4727C138.387 13.6354 137.912 13.7754 137.417 13.8926C136.922 14.0098 136.402 14.1009 135.855 14.166C135.308 14.2311 134.712 14.2637 134.068 14.2637C133.273 14.2637 132.508 14.1986 131.773 14.0684C131.043 13.9382 130.363 13.7428 129.732 13.4824C129.1 13.222 128.527 12.8997 128.013 12.5156C127.499 12.125 127.056 11.6725 126.685 11.1582C126.32 10.6439 126.037 10.0645 125.835 9.41992C125.64 8.77539 125.542 8.06901 125.542 7.30078C125.542 6.53255 125.64 5.82617 125.835 5.18164C126.037 4.53711 126.32 3.95768 126.685 3.44336C127.056 2.92904 127.499 2.47982 128.013 2.0957C128.527 1.70508 129.1 1.37956 129.732 1.11914C130.363 0.858724 131.043 0.663411 131.773 0.533203C132.502 0.402995 133.267 0.337891 134.068 0.337891C134.712 0.337891 135.308 0.370443 135.855 0.435547C136.402 0.500651 136.922 0.591797 137.417 0.708984C137.912 0.826172 138.387 0.966146 138.843 1.12891C139.305 1.28516 139.771 1.46094 140.239 1.65625V3.12109C139.868 2.88672 139.471 2.66536 139.048 2.45703C138.625 2.2487 138.166 2.06641 137.671 1.91016C137.183 1.75391 136.659 1.63021 136.099 1.53906C135.539 1.44792 134.94 1.40234 134.302 1.40234C133.013 1.40234 131.896 1.54232 130.952 1.82227C130.008 2.10221 129.227 2.49935 128.609 3.01367C127.997 3.52148 127.541 4.13997 127.241 4.86914C126.948 5.5918 126.802 6.40234 126.802 7.30078C126.802 8.19922 126.948 9.00977 127.241 9.73242C127.541 10.4551 127.997 11.0736 128.609 11.5879C129.227 12.0957 130.008 12.4896 130.952 12.7695C131.896 13.043 133.013 13.1797 134.302 13.1797C134.94 13.1797 135.542 13.1341 136.109 13.043C136.682 12.9518 137.215 12.8281 137.71 12.6719C138.211 12.5156 138.67 12.3366 139.087 12.1348C139.51 11.9264 139.894 11.7083 140.239 11.4805V12.9355ZM144.683 9.36133C144.683 9.9668 144.732 10.4876 144.83 10.9238C144.927 11.36 145.132 11.7181 145.445 11.998C145.757 12.278 146.207 12.4863 146.793 12.623C147.385 12.7533 148.17 12.8184 149.146 12.8184H155.211V14H148.902C147.828 14 146.939 13.9154 146.236 13.7461C145.539 13.5703 144.983 13.3034 144.566 12.9453C144.156 12.5807 143.869 12.1217 143.707 11.5684C143.544 11.015 143.462 10.3574 143.462 9.5957V0.582031H144.683V9.36133ZM170.787 13.2969C170.24 13.4661 169.732 13.6126 169.264 13.7363C168.795 13.8535 168.333 13.9479 167.877 14.0195C167.421 14.0977 166.956 14.153 166.48 14.1855C166.012 14.2246 165.494 14.2441 164.928 14.2441C163.613 14.2441 162.424 14.0846 161.363 13.7656C160.302 13.4466 159.397 12.9909 158.648 12.3984C157.906 11.7995 157.333 11.0768 156.93 10.2305C156.526 9.38411 156.324 8.43359 156.324 7.37891C156.324 6.35677 156.516 5.41927 156.9 4.56641C157.291 3.71354 157.835 2.98112 158.531 2.36914C159.228 1.75716 160.061 1.2819 161.031 0.943359C162.001 0.604818 163.072 0.435547 164.244 0.435547C165.462 0.435547 166.546 0.598307 167.496 0.923828C168.447 1.24935 169.247 1.71484 169.898 2.32031C170.549 2.92578 171.044 3.66146 171.383 4.52734C171.721 5.38672 171.891 6.35677 171.891 7.4375V7.74023H157.584C157.656 8.57357 157.864 9.32552 158.209 9.99609C158.554 10.6667 159.042 11.2363 159.674 11.7051C160.312 12.1738 161.093 12.5352 162.018 12.7891C162.949 13.0365 164.033 13.1602 165.27 13.1602C165.797 13.1602 166.331 13.1243 166.871 13.0527C167.411 12.9811 167.929 12.8867 168.424 12.7695C168.919 12.6458 169.371 12.5091 169.781 12.3594C170.191 12.2031 170.527 12.0436 170.787 11.8809V13.2969ZM170.689 6.67578C170.644 5.99219 170.491 5.34115 170.23 4.72266C169.97 4.09766 169.579 3.54753 169.059 3.07227C168.544 2.59701 167.887 2.2194 167.086 1.93945C166.292 1.65951 165.338 1.51953 164.225 1.51953C163.176 1.51953 162.258 1.65951 161.471 1.93945C160.683 2.2194 160.016 2.59701 159.469 3.07227C158.922 3.54102 158.492 4.08789 158.18 4.71289C157.867 5.33138 157.669 5.98568 157.584 6.67578H170.689ZM185.905 2.56445C185.651 2.44076 185.358 2.31055 185.026 2.17383C184.694 2.0306 184.313 1.90365 183.883 1.79297C183.46 1.68229 182.982 1.59115 182.448 1.51953C181.914 1.44141 181.321 1.40234 180.67 1.40234C179.883 1.40234 179.179 1.44792 178.561 1.53906C177.949 1.63021 177.428 1.77344 176.998 1.96875C176.575 2.15755 176.25 2.39844 176.022 2.69141C175.801 2.98438 175.69 3.33268 175.69 3.73633C175.69 4.07487 175.794 4.37109 176.002 4.625C176.217 4.87891 176.504 5.10352 176.862 5.29883C177.226 5.49414 177.649 5.67318 178.131 5.83594C178.62 5.99219 179.134 6.14193 179.674 6.28516C180.221 6.42188 180.781 6.56185 181.354 6.70508C181.933 6.84831 182.493 7.00456 183.034 7.17383C183.58 7.33659 184.095 7.52214 184.577 7.73047C185.065 7.93229 185.488 8.16992 185.846 8.44336C186.211 8.7168 186.497 9.0293 186.705 9.38086C186.92 9.73242 187.028 10.1393 187.028 10.6016C187.028 11.1029 186.933 11.5423 186.745 11.9199C186.556 12.291 186.299 12.6133 185.973 12.8867C185.654 13.1536 185.276 13.3783 184.84 13.5605C184.411 13.7363 183.948 13.8763 183.454 13.9805C182.965 14.0846 182.457 14.1562 181.93 14.1953C181.409 14.2409 180.895 14.2637 180.387 14.2637C179.222 14.2637 178.164 14.179 177.213 14.0098C176.269 13.8405 175.368 13.6094 174.508 13.3164V11.8223C175.394 12.3496 176.328 12.7109 177.311 12.9062C178.301 13.1016 179.339 13.1992 180.426 13.1992C181.194 13.1992 181.904 13.1536 182.555 13.0625C183.206 12.9714 183.769 12.8281 184.245 12.6328C184.72 12.431 185.088 12.1706 185.348 11.8516C185.615 11.5326 185.748 11.1419 185.748 10.6797C185.748 10.3086 185.641 9.98307 185.426 9.70312C185.218 9.42318 184.931 9.17904 184.567 8.9707C184.209 8.75586 183.786 8.56706 183.297 8.4043C182.816 8.24154 182.304 8.0918 181.764 7.95508C181.224 7.81185 180.664 7.67513 180.084 7.54492C179.511 7.4082 178.955 7.26172 178.414 7.10547C177.874 6.94922 177.36 6.77344 176.871 6.57812C176.39 6.38281 175.967 6.15495 175.602 5.89453C175.244 5.6276 174.957 5.32161 174.743 4.97656C174.534 4.63151 174.43 4.23112 174.43 3.77539C174.43 3.32617 174.515 2.92904 174.684 2.58398C174.853 2.23242 175.084 1.92969 175.377 1.67578C175.677 1.42188 176.025 1.21029 176.422 1.04102C176.819 0.865234 177.243 0.728516 177.692 0.630859C178.148 0.526693 178.62 0.451823 179.108 0.40625C179.596 0.360677 180.078 0.337891 180.553 0.337891C181.074 0.337891 181.566 0.360677 182.028 0.40625C182.496 0.451823 182.946 0.513672 183.375 0.591797C183.812 0.663411 184.235 0.748047 184.645 0.845703C185.062 0.943359 185.482 1.04753 185.905 1.1582V2.56445Z" fill="white"/>
</svg>
